<svg xmlns="http://www.w3.org/2000/svg" xmlns:xlink="http://www.w3.org/1999/xlink" version="1.1" x="0px" y="0px" viewBox="0 0 100 125" style="enable-background:new 0 0 100 100;" xml:space="preserve"><g><path d="M82.5,12.7h-8.8V7.9c0-1.6-1.3-2.9-2.9-2.9c-1.6,0-2.9,1.3-2.9,2.9v4.8h-36V7.9C31.9,6.3,30.6,5,29,5s-2.9,1.3-2.9,2.9v4.8   h-8.6c-4.8,0-8.7,3.9-8.7,8.7v64.9c0,4.8,3.9,8.7,8.7,8.7h64.9c4.8,0,8.7-3.9,8.7-8.7V21.4C91.2,16.6,87.3,12.7,82.5,12.7z    M47.7,40.6v13H33.8v-13H47.7z M66.5,40.6v13H52.3v-13H66.5z M85.4,40.6v13H71.1v-13H85.4z M29.1,53.6H14.6v-13h14.5V53.6z    M14.6,58.2h14.5v14.1H14.6V58.2z M33.8,58.2h13.9v14.1H33.8V58.2z M47.7,77v12.2H33.8V77H47.7z M52.3,77h14.1v12.2H52.3V77z    M52.3,72.4V58.2h14.1v14.1H52.3z M71.1,58.2h14.3v14.1H71.1V58.2z M17.5,18.5h8.6v6.1c0,1.6,1.3,2.9,2.9,2.9s2.9-1.3,2.9-2.9v-6.1   h36v6.1c0,1.6,1.3,2.9,2.9,2.9c1.6,0,2.9-1.3,2.9-2.9v-6.1h8.8c1.6,0,2.9,1.3,2.9,2.9v13.5H14.6V21.4   C14.6,19.8,15.9,18.5,17.5,18.5z M14.6,86.3V77h14.5v12.2H17.5C15.9,89.2,14.6,87.9,14.6,86.3z M82.5,89.2H71.1V77h14.3v9.3   C85.4,87.9,84.1,89.2,82.5,89.2z"/></g></svg>