<svg xmlns="http://www.w3.org/2000/svg" xmlns:xlink="http://www.w3.org/1999/xlink" version="1.1" x="0px" y="0px" viewBox="0 0 100 125" style="enable-background:new 0 0 100 100;" xml:space="preserve"><g><path d="M50,4.8c-24.8,0-45,20.2-45,45c0,24.8,20.2,45,45,45c24.8,0,45-20.2,45-45C95,24.9,74.8,4.8,50,4.8z M50,89.9   c-22.1,0-40.2-18-40.2-40.2c0-22.1,18-40.2,40.2-40.2c22.1,0,40.2,18,40.2,40.2C90.2,71.9,72.1,89.9,50,89.9z"/><circle cx="50" cy="17.1" r="3.9"/><circle cx="50" cy="82.9" r="3.9"/><circle cx="82.9" cy="50" r="3.9"/><circle cx="17.1" cy="50" r="3.9"/><circle cx="27.7" cy="29.7" r="3.9"/><circle cx="27.7" cy="71.3" r="3.9"/><circle cx="72.3" cy="72.2" r="3.9"/><circle cx="73.2" cy="29.7" r="3.9"/><path d="M51.9,49.2V31.6c0-1.1-0.9-1.9-1.9-1.9s-1.9,0.9-1.9,1.9v19.2l14.1,14.1c0.4,0.4,0.9,0.6,1.4,0.6c0.5,0,1-0.2,1.4-0.6   c0.8-0.8,0.8-2,0-2.7L51.9,49.2z"/></g></svg>